{"glyphs":{":":{"x_min":0,"x_max":318,"ha":318,"o":"m 74 65 q 74 100 99 125 q 124 149 159 149 q 194 149 219 125 q 243 100 243 65 q 243 29 219 4 q 195 -20 159 -20 q 124 -20 99 5 q 74 29 74 65 z m 74 366 q 74 401 99 426 q 124 451 159 451 q 194 451 219 426 q 243 401 243 366 q 243 330 219 306 q 195 282 159 282 q 123 282 99 306 q 74 331 74 366 z"},"$":{"x_min":0,"x_max":635,"ha":635,"o":"m 359 213 l 359 65 q 405 70 429 89 q 453 108 453 140 q 453 169 431 186 q 409 204 359 213 z m 286 -110 l 286 0 q 282 0 274 0 q 266 -1 262 -1 q 162 -1 102 36 q 42 73 42 134 q 42 173 67 198 q 92 222 132 222 q 167 222 190 202 q 213 181 213 151 q 213 127 198 113 q 183 99 154 95 q 177 79 209 72 q 241 64 286 64 l 286 232 q 161 255 106 299 q 52 342 52 419 q 52 500 115 551 q 178 603 286 609 l 286 676 l 359 676 l 359 608 q 458 602 517 566 q 575 529 575 474 q 575 441 553 420 q 531 399 496 399 q 461 399 440 418 q 418 437 418 466 q 418 483 426 495 q 435 507 451 515 q 432 526 409 531 q 386 537 359 537 l 359 376 q 482 354 538 309 q 594 264 594 188 q 594 106 531 55 q 467 4 359 0 l 359 -110 z m 286 538 q 240 533 219 516 q 197 499 197 468 q 197 438 218 420 q 240 402 286 394 z"},"?":{"x_min":0,"x_max":566,"ha":566,"o":"m 177 65 q 177 100 201 125 q 226 149 261 149 q 296 149 321 125 q 346 100 346 65 q 346 29 322 4 q 297 -20 261 -20 q 226 -20 201 5 q 177 29 177 65 z m 212 212 q 211 215 211 218 q 211 221 211 228 q 211 255 220 282 q 229 309 247 333 q 256 347 276 372 q 337 451 337 501 q 337 541 306 568 q 276 595 230 595 q 188 595 159 572 q 129 549 125 514 q 138 519 148 521 q 159 523 167 523 q 201 523 220 503 q 240 484 240 450 q 240 409 215 386 q 190 364 145 364 q 102 364 73 399 q 45 435 45 489 q 45 577 112 634 q 179 691 283 691 q 387 691 454 639 q 520 587 520 506 q 520 458 498 421 q 477 383 427 346 q 417 338 397 325 q 316 268 311 212 z"},"<":{"x_min":0,"x_max":833,"ha":833,"o":"m 704 593 l 704 469 l 287 298 l 704 128 l 704 4 l 129 241 l 129 355 z"},"'":{"x_min":0,"x_max":181,"ha":181,"o":"m 101 413 l 80 413 l 38 639 q 37 646 36 650 q 36 654 36 657 q 36 683 51 699 q 66 715 91 715 q 116 715 130 699 q 145 684 145 658 q 145 654 145 650 q 144 646 143 639 z"},"=":{"x_min":0,"x_max":833,"ha":833,"o":"m 124 245 l 709 245 l 709 133 l 124 133 z m 124 464 l 709 464 l 709 351 l 124 351 z"},"a":{"x_min":0,"x_max":616,"ha":616,"o":"m 345 55 q 313 18 273 0 q 232 -18 181 -18 q 112 -18 71 19 q 30 56 30 117 q 30 174 63 205 q 96 235 201 258 q 290 277 312 295 q 335 313 335 349 q 335 383 308 404 q 280 425 234 425 q 208 425 190 420 q 172 416 158 405 q 185 403 201 388 q 217 372 217 349 q 217 321 195 302 q 173 284 138 284 q 99 284 75 305 q 52 326 52 360 q 52 421 112 455 q 171 489 279 489 q 332 489 375 479 q 417 470 442 453 q 470 434 482 409 q 493 385 493 328 l 493 315 l 493 133 q 493 110 499 99 q 505 88 519 88 q 533 88 538 98 q 544 108 544 133 l 544 174 l 604 174 l 604 128 q 604 52 571 17 q 538 -18 466 -18 q 419 -18 388 0 q 358 19 345 55 z m 332 233 q 313 223 280 208 q 202 169 202 136 q 202 112 219 98 q 235 83 262 83 q 295 83 313 104 q 332 125 332 163 z"},"L":{"x_min":0,"x_max":692,"ha":692,"o":"m 19 671 l 409 671 l 409 583 l 367 583 q 327 583 316 573 q 305 563 305 525 l 305 88 l 358 88 q 434 88 463 95 q 493 103 511 120 q 532 140 544 175 q 555 210 560 274 l 648 274 l 648 0 l 19 0 l 19 88 l 56 88 q 95 88 106 98 q 117 107 117 146 l 117 525 q 117 564 106 573 q 95 583 56 583 l 19 583 z"},"3":{"x_min":0,"x_max":635,"ha":635,"o":"m 262 277 l 262 361 q 324 364 354 386 q 384 408 384 450 q 384 494 351 519 q 319 544 263 544 q 233 544 209 536 q 185 527 165 510 l 174 510 q 206 510 224 492 q 243 475 243 445 q 243 409 220 388 q 196 366 157 366 q 114 366 90 391 q 65 416 65 459 q 65 535 130 581 q 195 626 307 626 q 431 626 498 583 q 565 541 565 462 q 565 410 531 375 q 497 339 437 329 q 514 310 552 271 q 590 233 590 175 q 590 80 514 31 q 439 -19 294 -19 q 179 -19 112 26 q 45 71 45 148 q 45 197 73 227 q 102 257 148 257 q 186 257 211 233 q 237 209 237 173 q 237 140 215 120 q 193 100 156 100 q 177 83 204 75 q 231 67 266 67 q 330 67 364 96 q 398 126 398 181 q 398 230 365 254 q 332 277 262 277 z"},";":{"x_min":0,"x_max":318,"ha":318,"o":"m 163 -14 q 159 -15 154 -16 q 149 -16 140 -16 q 106 -16 86 5 q 65 26 65 60 q 65 97 90 121 q 115 146 152 146 q 196 146 224 116 q 251 86 251 38 q 251 -31 202 -81 q 153 -130 70 -145 l 70 -89 q 109 -83 132 -65 q 154 -47 163 -14 z m 70 366 q 70 401 94 426 q 119 451 154 451 q 189 451 214 426 q 239 401 239 366 q 239 330 214 306 q 190 282 154 282 q 118 282 94 306 q 70 331 70 366 z"},"J":{"x_min":0,"x_max":610,"ha":610,"o":"m 311 525 q 311 563 300 573 q 289 583 249 583 l 207 583 l 207 671 l 600 671 l 600 583 l 564 583 q 524 583 513 573 q 502 563 502 525 l 502 225 q 502 98 442 39 q 382 -20 254 -20 q 147 -20 82 34 q 16 87 16 174 q 16 229 46 263 q 77 297 125 297 q 168 297 196 271 q 223 245 223 204 q 223 167 202 146 q 180 125 143 125 q 134 125 124 126 q 113 128 103 131 q 122 104 147 91 q 173 77 206 77 q 262 77 287 111 q 311 145 311 225 z"},"V":{"x_min":0,"x_max":719,"ha":719,"o":"m 452 0 l 265 0 l 95 506 q 78 556 58 570 q 38 584 -7 586 l -7 671 l 368 671 l 368 586 q 360 586 352 587 q 343 587 329 587 q 297 587 285 580 q 273 573 273 555 q 273 548 276 537 q 279 525 288 498 l 394 171 l 508 514 q 516 538 518 546 q 520 554 520 559 q 520 573 506 580 q 491 587 462 587 q 450 587 443 587 q 437 586 431 586 l 431 671 l 722 671 l 722 586 q 676 585 653 565 q 630 545 614 487 z"},"\"":{"x_min":0,"x_max":350,"ha":350,"o":"m 270 413 l 248 413 l 207 639 q 206 646 205 650 q 205 654 205 657 q 205 684 219 699 q 234 715 259 715 q 284 715 298 699 q 313 684 313 658 q 313 650 313 646 q 312 642 312 639 z m 101 413 l 80 413 l 38 639 q 37 646 36 650 q 36 654 36 657 q 36 684 51 699 q 65 715 90 715 q 115 715 130 699 q 145 684 145 658 q 145 654 145 650 q 144 646 143 639 z"},"7":{"x_min":0,"x_max":635,"ha":635,"o":"m 191 0 l 191 17 q 191 99 211 166 q 232 234 274 290 q 288 309 350 369 q 411 429 450 477 q 430 466 407 460 q 383 455 355 455 q 330 455 288 464 q 246 472 230 472 q 184 472 162 445 q 139 418 139 363 q 139 359 140 343 q 141 333 141 326 l 50 326 l 50 609 l 141 609 l 141 535 q 172 577 206 597 q 240 616 284 616 q 329 616 388 593 q 447 569 464 569 q 484 569 495 578 q 507 587 507 603 l 507 609 l 585 609 q 585 606 586 602 q 586 598 586 590 q 586 530 501 396 q 488 375 481 364 q 419 263 398 188 q 376 112 376 23 l 376 0 z"},"S":{"x_min":0,"x_max":669,"ha":669,"o":"m 123 -9 l 42 -9 l 42 255 l 132 255 q 144 174 201 126 q 257 78 340 78 q 396 78 429 100 q 461 121 461 158 q 461 216 341 244 q 321 249 311 251 q 206 276 166 292 q 125 308 99 329 q 65 355 48 392 q 31 429 31 473 q 31 575 102 631 q 174 687 304 687 q 369 687 419 673 q 469 659 506 631 l 526 678 l 609 678 l 609 433 l 517 433 q 508 507 456 550 q 403 592 319 592 q 269 592 239 571 q 210 550 210 514 q 210 463 342 435 q 393 424 422 417 q 537 389 591 336 q 644 283 644 198 q 644 98 569 39 q 494 -20 366 -20 q 305 -20 247 -4 q 188 13 150 40 z"},"}":{"x_min":0,"x_max":500,"ha":500,"o":"m 84 740 l 90 740 q 202 740 243 704 q 285 668 285 571 l 285 480 q 285 398 312 367 q 338 337 413 330 l 413 291 q 338 284 312 253 q 285 223 285 141 l 285 50 q 285 -47 243 -83 q 202 -119 90 -119 l 84 -119 l 84 -88 q 138 -86 158 -61 q 178 -36 178 41 l 178 105 q 178 215 203 255 q 228 294 293 310 q 228 327 203 366 q 178 406 178 516 l 178 580 q 178 657 158 682 q 138 707 84 708 z"},"Z":{"x_min":0,"x_max":650,"ha":650,"o":"m 23 0 l 23 92 l 403 581 l 293 581 q 205 581 170 546 q 135 510 130 417 l 42 417 l 42 671 l 627 671 l 627 574 l 243 86 l 363 86 q 452 86 488 126 q 523 166 528 273 l 627 273 l 627 0 z"},"x":{"x_min":0,"x_max":654,"ha":654,"o":"m 285 170 l 238 128 q 223 115 217 107 q 212 100 212 94 q 212 87 221 84 q 229 80 246 80 l 256 80 l 256 0 l 14 0 l 14 83 q 17 83 21 83 q 25 82 28 82 q 69 82 119 127 q 124 132 127 135 l 232 232 l 128 345 q 107 368 85 379 q 64 390 34 394 l 34 472 l 347 472 l 347 396 q 345 396 341 396 q 336 397 335 397 q 321 397 314 394 q 306 390 306 384 q 306 376 316 364 q 319 360 320 359 l 363 307 l 418 362 q 426 371 429 376 q 432 381 432 386 q 432 391 427 394 q 421 397 411 397 q 407 397 405 397 q 402 396 400 396 l 400 472 l 630 472 l 630 394 l 625 394 q 601 394 577 382 q 554 371 516 337 l 418 250 q 505 145 545 113 q 585 81 621 81 q 625 81 629 81 q 632 82 640 83 l 640 0 l 299 0 l 299 80 q 300 80 304 80 q 308 79 309 79 q 324 79 333 84 q 342 90 342 98 q 342 102 339 106 q 337 111 333 116 z"},")":{"x_min":0,"x_max":405,"ha":405,"o":"m 28 -197 l 28 -111 q 117 -92 155 -12 q 193 69 193 246 q 193 424 156 502 q 118 581 28 601 l 28 687 q 200 673 287 559 q 375 445 375 236 q 375 42 282 -73 q 190 -188 28 -197 z"},"&":{"x_min":0,"x_max":889,"ha":889,"o":"m 750 235 l 843 235 q 844 217 845 208 q 845 198 845 191 q 845 85 793 33 q 742 -20 639 -20 q 604 -20 565 -6 q 527 7 483 36 q 439 8 390 -6 q 341 -20 286 -20 q 172 -20 107 37 q 41 93 41 190 q 41 267 82 322 q 124 376 207 410 q 190 443 182 472 q 174 500 174 525 q 174 595 224 643 q 273 690 347 690 q 423 690 470 648 q 517 607 517 540 q 517 493 490 453 q 463 413 409 378 l 415 370 q 487 263 533 213 q 562 243 576 267 q 590 290 590 307 q 590 320 578 326 q 565 332 540 332 q 530 332 525 332 q 520 332 515 331 l 515 418 l 801 418 l 801 331 l 789 331 q 758 331 737 323 q 716 316 705 300 q 698 292 666 235 q 633 178 600 135 q 624 110 643 99 q 661 88 678 88 q 715 88 733 119 q 750 149 750 216 z m 259 313 q 232 290 220 266 q 207 242 207 214 q 207 159 243 121 q 279 82 331 82 q 349 82 369 88 q 388 95 411 108 q 384 133 345 185 q 307 237 259 313 z m 350 467 q 383 480 400 501 q 418 522 418 549 q 418 572 405 586 q 392 600 369 600 q 344 600 330 587 q 316 575 316 553 q 316 537 325 515 q 333 493 350 467 z"},"_":{"x_min":0,"x_max":500,"ha":500,"o":"m 0 -119 l 500 -119 l 500 -236 l 0 -236 z"},"v":{"x_min":0,"x_max":586,"ha":586,"o":"m 196 0 l 92 318 q 78 360 63 375 q 48 389 21 389 l 10 389 l 10 472 l 308 472 l 308 389 l 290 389 q 257 389 250 385 q 243 380 243 367 q 243 363 245 355 q 247 347 250 338 l 324 112 l 400 331 q 404 343 407 353 q 409 362 409 368 q 409 379 400 384 q 390 389 370 389 l 350 389 l 350 472 l 577 472 l 577 390 l 558 390 q 533 390 521 379 q 508 368 492 323 l 378 0 z"},"O":{"x_min":0,"x_max":819,"ha":819,"o":"m 251 335 q 251 198 289 135 q 327 72 410 72 q 493 72 531 135 q 569 198 569 335 q 569 472 531 535 q 493 598 410 598 q 327 598 289 535 q 251 472 251 335 z m 33 335 q 33 501 134 596 q 234 691 410 691 q 585 691 686 596 q 786 501 786 335 q 786 169 686 74 q 586 -20 410 -20 q 234 -20 134 75 q 33 169 33 335 z"},"(":{"x_min":0,"x_max":405,"ha":405,"o":"m 378 -197 q 216 -188 123 -73 q 31 42 31 236 q 31 445 118 559 q 206 673 378 687 l 378 601 q 288 581 250 502 q 213 424 213 246 q 213 69 251 -12 q 289 -92 378 -111 z"},"C":{"x_min":0,"x_max":736,"ha":736,"o":"m 583 260 l 689 260 q 685 121 610 51 q 535 -20 390 -20 q 227 -20 130 77 q 33 173 33 336 q 33 417 58 481 q 83 545 135 596 q 185 645 244 668 q 304 691 382 691 q 437 691 485 675 q 533 659 577 626 l 597 679 l 689 679 l 689 406 l 591 406 q 585 494 540 543 q 496 593 422 593 q 341 593 296 526 q 251 458 251 337 q 251 213 296 147 q 340 80 423 80 q 493 80 535 128 q 578 175 583 260 z"},"W":{"x_min":0,"x_max":975,"ha":975,"o":"m 226 0 l 95 474 q 76 545 58 563 q 41 582 7 586 l 7 671 l 309 671 l 309 586 l 304 586 q 278 586 264 579 q 251 572 251 559 q 251 553 253 542 q 256 531 262 510 l 354 169 l 446 466 q 433 537 413 562 q 394 586 354 586 l 354 671 l 668 671 l 668 586 q 664 586 659 587 q 654 587 645 587 q 619 587 610 580 q 600 572 600 553 q 600 548 601 541 q 602 534 604 526 l 693 169 l 786 523 q 789 534 791 541 q 792 548 792 553 q 792 571 777 579 q 762 586 722 586 l 722 671 l 968 671 l 968 586 q 935 584 917 568 q 898 551 887 508 l 753 0 l 574 0 l 494 285 l 412 0 z"},"A":{"x_min":0,"x_max":716,"ha":716,"o":"m 389 303 l 322 515 l 253 303 z m -13 0 l -13 88 l 11 88 q 44 88 59 98 q 74 109 89 153 l 261 671 l 461 671 l 626 150 q 639 112 653 100 q 667 88 695 88 l 729 88 l 729 0 l 359 0 l 359 88 l 387 88 q 423 88 436 93 q 448 98 448 112 q 448 116 445 126 q 443 131 443 133 l 417 216 l 224 216 l 199 139 q 197 132 195 125 q 194 117 194 112 q 194 98 204 93 q 214 88 248 88 l 281 88 l 281 0 z"},"f":{"x_min":0,"x_max":380,"ha":380,"o":"m 23 0 l 23 85 l 47 85 q 77 85 87 95 q 97 105 97 156 l 97 389 l 23 389 l 23 472 l 97 472 l 97 499 q 97 552 104 579 q 110 606 126 625 q 150 655 194 672 q 237 689 289 689 q 363 689 408 658 q 453 627 453 578 q 453 544 433 524 q 413 503 381 503 q 352 503 332 521 q 313 540 313 567 q 313 583 322 595 q 331 607 350 617 q 341 619 333 619 q 325 620 318 620 q 288 620 276 602 q 264 584 264 536 l 264 472 l 350 472 l 350 389 l 264 389 l 264 156 q 264 106 273 96 q 283 85 315 85 l 350 85 l 350 0 z"},"Q":{"x_min":0,"x_max":871,"ha":871,"o":"m 263 199 q 276 259 311 288 q 345 317 402 317 q 441 317 482 300 q 523 283 570 248 q 572 268 573 290 q 574 311 574 335 q 574 471 534 534 q 494 598 410 598 q 330 598 289 535 q 248 472 248 347 q 248 318 252 281 q 255 244 263 199 z m 520 109 q 480 155 443 178 q 406 202 373 202 q 343 202 324 185 q 306 167 306 138 q 306 106 333 86 q 360 66 404 66 q 434 66 463 77 q 492 87 520 109 z m 716 122 q 727 107 738 100 q 749 93 761 93 q 783 93 793 111 q 803 130 805 177 l 871 177 q 870 68 835 11 q 800 -46 734 -46 q 703 -46 674 -30 q 645 -13 606 26 q 553 3 500 -9 q 448 -20 394 -20 q 230 -20 132 77 q 33 174 33 335 q 33 501 134 596 q 234 691 410 691 q 584 691 685 597 q 786 504 786 344 q 786 286 769 231 q 751 176 716 122 z"},"w":{"x_min":0,"x_max":868,"ha":868,"o":"m 181 0 l 94 312 q 80 365 62 379 q 44 394 9 394 l 9 472 l 287 472 l 287 394 l 267 394 q 252 394 244 388 q 236 383 236 372 q 236 366 238 354 q 241 341 245 326 l 305 114 l 369 321 q 375 342 378 354 q 381 367 381 375 q 381 386 375 390 q 368 394 347 394 l 329 394 l 329 472 l 603 472 l 603 394 l 585 394 q 567 394 557 388 q 547 381 547 370 q 547 364 549 354 q 551 344 555 332 l 619 113 l 687 339 q 691 352 693 360 q 695 367 695 372 q 695 385 688 390 q 681 395 664 395 q 657 395 653 395 q 649 395 646 394 l 646 472 l 859 472 l 859 394 q 821 394 804 382 q 787 370 775 330 l 676 0 l 505 0 l 431 240 l 358 0 z"},"-":{"x_min":0,"x_max":354,"ha":354,"o":"m 318 161 l 36 161 l 36 311 l 318 311 z"},"E":{"x_min":0,"x_max":748,"ha":748,"o":"m 19 0 l 19 88 l 56 88 q 95 88 106 98 q 117 107 117 146 l 117 525 q 117 564 106 573 q 95 583 56 583 l 19 583 l 19 671 l 682 671 l 682 415 l 594 415 q 586 474 575 504 q 563 534 545 551 q 526 568 497 576 q 468 583 392 583 l 305 583 l 305 392 l 322 392 q 377 392 396 413 q 415 434 415 498 l 499 498 l 499 192 l 415 192 q 414 262 396 283 q 379 304 322 304 l 305 304 l 305 88 l 395 88 q 505 88 544 126 q 583 164 594 277 l 682 277 l 682 0 z"},"s":{"x_min":0,"x_max":556,"ha":556,"o":"m 114 -5 l 43 -5 l 43 171 l 122 171 q 140 123 178 96 q 217 69 268 69 q 303 69 322 80 q 341 92 341 113 q 341 129 328 138 q 316 147 265 161 q 257 163 242 167 q 128 197 89 225 q 64 243 51 271 q 37 298 37 330 q 37 402 96 446 q 154 490 252 490 q 295 490 334 480 q 373 471 412 450 l 423 477 l 494 477 l 494 326 l 423 326 q 397 366 359 387 q 320 408 274 408 q 246 408 229 397 q 213 385 213 365 q 213 332 328 303 q 359 295 377 290 q 445 271 482 234 q 519 196 519 145 q 519 73 458 28 q 396 -17 297 -17 q 255 -17 215 -6 q 175 5 129 30 z"},">":{"x_min":0,"x_max":833,"ha":833,"o":"m 129 593 l 704 355 l 704 241 l 129 4 l 129 128 l 546 298 l 129 469 z"},"l":{"x_min":0,"x_max":348,"ha":348,"o":"m 258 671 l 258 128 q 258 97 266 89 q 275 81 303 81 l 330 81 l 330 0 l 15 0 l 15 81 l 42 81 q 71 81 80 90 q 89 98 89 128 l 89 531 q 89 570 81 580 q 73 590 44 590 l 15 590 l 15 671 z"},"8":{"x_min":0,"x_max":635,"ha":635,"o":"m 156 301 q 109 328 85 363 q 62 398 62 443 q 62 529 131 579 q 201 628 324 628 q 432 628 498 586 q 563 545 563 478 q 563 438 538 408 q 512 378 460 357 q 529 333 563 290 q 597 247 597 185 q 597 91 520 37 q 442 -17 305 -17 q 176 -17 106 29 q 36 75 36 160 q 36 208 67 245 q 99 282 156 301 z m 381 392 q 410 407 425 428 q 439 448 439 475 q 439 507 407 527 q 375 547 321 547 q 272 547 245 530 q 218 514 218 484 q 218 440 366 396 z m 233 257 q 196 239 178 216 q 160 193 160 163 q 160 117 198 89 q 236 62 300 62 q 369 62 402 82 q 435 101 435 142 q 435 168 400 190 q 364 212 233 257 z"},"\\":{"x_min":0,"x_max":282,"ha":282,"o":"m -29 691 l 54 691 l 312 -93 l 230 -93 z"},"e":{"x_min":0,"x_max":554,"ha":554,"o":"m 205 296 l 359 296 l 359 300 q 359 350 339 375 q 319 401 281 401 q 245 401 226 374 q 206 347 205 296 z m 401 160 l 520 160 q 498 72 437 28 q 377 -17 281 -17 q 167 -17 97 51 q 28 120 28 231 q 28 350 95 418 q 162 487 277 487 q 396 487 462 420 q 528 353 528 233 l 528 215 l 203 215 l 203 207 q 203 142 227 110 q 251 77 300 77 q 344 77 370 99 q 396 120 401 160 z"},"b":{"x_min":0,"x_max":615,"ha":615,"o":"m 241 233 q 241 153 261 111 q 282 70 321 70 q 361 70 380 110 q 399 150 399 233 q 399 317 380 357 q 361 396 321 396 q 280 396 260 356 q 241 317 241 233 z m 229 56 l 185 -2 l 77 -2 l 77 543 q 77 572 68 581 q 59 590 30 590 l 0 590 l 0 671 l 241 671 l 241 417 q 271 453 308 470 q 345 488 389 488 q 476 488 527 419 q 579 350 579 233 q 579 110 529 46 q 479 -18 383 -18 q 337 -18 299 0 q 262 18 229 56 z"},"%":{"x_min":0,"x_max":960,"ha":960,"o":"m 550 175 q 550 261 602 315 q 655 368 739 368 q 823 368 876 315 q 928 262 928 175 q 928 88 876 36 q 824 -17 739 -17 q 654 -17 602 36 q 550 89 550 175 z m 671 175 q 671 109 687 79 q 703 50 739 50 q 775 50 791 79 q 807 109 807 175 q 807 241 791 270 q 775 299 739 299 q 703 299 687 270 q 671 241 671 175 z m 32 434 q 32 520 84 573 q 136 626 221 626 q 306 626 357 573 q 409 521 409 434 q 409 347 357 294 q 305 241 220 241 q 135 241 84 294 q 32 347 32 434 z m 152 434 q 152 368 168 338 q 184 309 220 309 q 256 309 273 339 q 289 368 289 434 q 289 500 273 529 q 257 558 221 558 q 185 558 168 529 q 152 499 152 434 z m 248 -18 l 624 627 l 712 627 l 337 -18 z"},"m":{"x_min":0,"x_max":947,"ha":947,"o":"m 21 0 l 21 81 l 47 81 q 76 81 85 90 q 94 99 94 128 l 94 344 q 94 373 85 382 q 76 391 47 391 l 21 391 l 21 472 l 253 472 l 253 406 q 285 448 322 466 q 359 485 412 485 q 465 485 500 466 q 534 447 550 409 q 583 449 622 467 q 661 486 711 486 q 787 486 822 444 q 857 401 857 310 l 857 128 q 857 97 866 89 q 876 81 909 81 l 931 81 l 931 0 l 643 0 l 643 81 l 647 81 q 672 81 681 91 q 691 102 691 128 l 691 310 q 691 354 677 375 q 662 395 631 395 q 596 395 578 368 q 559 340 559 289 l 559 134 q 559 98 568 90 q 577 81 605 81 l 605 0 l 345 0 l 345 81 q 373 81 383 91 q 393 101 393 128 l 393 310 q 393 354 379 375 q 364 395 333 395 q 298 395 280 367 q 262 339 262 285 l 262 128 q 262 97 271 89 q 280 81 308 81 l 308 0 z"},"#":{"x_min":0,"x_max":769,"ha":769,"o":"m 344 412 l 303 297 l 427 297 l 468 412 z m 334 716 l 455 716 l 387 524 l 505 524 l 573 716 l 694 716 l 626 524 l 758 524 l 716 412 l 586 412 l 546 298 l 681 298 l 640 186 l 506 186 l 437 -6 l 316 -6 l 385 186 l 267 186 l 198 -6 l 77 -6 l 146 186 l 11 186 l 53 298 l 186 298 l 226 412 l 87 412 l 129 524 l 266 524 z"},",":{"x_min":0,"x_max":318,"ha":318,"o":"m 164 -14 q 160 -15 155 -16 q 150 -16 141 -16 q 107 -16 87 5 q 66 26 66 60 q 66 97 91 121 q 116 146 153 146 q 197 146 224 116 q 251 87 251 38 q 251 -31 202 -81 q 153 -130 70 -145 l 70 -89 q 109 -83 132 -65 q 155 -46 164 -14 z"},"n":{"x_min":0,"x_max":664,"ha":664,"o":"m 21 0 l 21 81 l 48 81 q 77 81 86 90 q 95 99 95 128 l 95 344 q 95 373 86 382 q 77 391 48 391 l 21 391 l 21 472 l 254 472 l 254 399 q 284 441 327 463 q 369 485 421 485 q 507 485 542 446 q 578 407 578 310 l 578 128 q 578 99 587 90 q 596 81 625 81 l 648 81 l 648 0 l 354 0 l 354 81 l 365 81 q 394 81 403 90 q 412 99 412 128 l 412 310 q 412 353 395 374 q 377 395 343 395 q 304 395 283 367 q 262 340 262 288 l 262 128 q 262 99 271 90 q 280 81 309 81 l 319 81 l 319 0 z"},"h":{"x_min":0,"x_max":662,"ha":662,"o":"m 21 0 l 21 81 l 45 81 q 74 81 83 90 q 92 99 92 128 l 92 543 q 92 572 83 581 q 74 590 45 590 l 21 590 l 21 671 l 252 671 l 252 404 q 288 445 329 465 q 370 485 418 485 q 504 485 540 446 q 576 407 576 310 l 576 128 q 576 99 585 90 q 594 81 623 81 l 646 81 l 646 0 l 351 0 l 351 81 l 362 81 q 391 81 400 90 q 409 99 409 128 l 409 310 q 409 353 392 374 q 375 395 340 395 q 298 395 278 366 q 259 336 259 272 l 259 128 q 259 99 268 90 q 277 81 306 81 l 317 81 l 317 0 z"},"z":{"x_min":0,"x_max":493,"ha":493,"o":"m 23 0 l 23 91 l 283 390 l 225 390 q 154 390 136 370 q 119 350 119 281 l 119 273 l 37 273 l 37 472 l 470 472 l 470 381 l 216 81 l 283 81 q 343 81 366 102 q 388 124 388 180 q 388 191 388 198 q 388 204 387 209 l 470 209 l 470 0 z"},"B":{"x_min":0,"x_max":738,"ha":738,"o":"m 305 392 l 350 392 q 417 392 448 416 q 478 439 478 490 q 478 539 449 561 q 420 583 354 583 l 305 583 z m 305 88 l 358 88 q 433 88 467 114 q 501 140 501 196 q 501 254 467 281 q 433 307 357 307 l 305 307 z m 19 0 l 19 88 l 56 88 q 95 88 106 98 q 117 107 117 146 l 117 525 q 117 564 106 573 q 95 583 56 583 l 19 583 l 19 671 l 411 671 q 542 671 604 633 q 665 595 665 513 q 665 458 629 417 q 594 376 526 355 q 614 336 656 294 q 699 252 699 184 q 699 85 631 43 q 562 0 400 0 z"},"K":{"x_min":0,"x_max":806,"ha":806,"o":"m 19 0 l 19 88 l 56 88 q 95 88 106 98 q 117 107 117 146 l 117 525 q 117 564 106 573 q 95 583 56 583 l 19 583 l 19 671 l 386 671 l 386 583 l 363 583 q 323 583 312 573 q 301 563 301 525 l 301 348 l 525 542 q 533 549 536 555 q 540 561 540 567 q 540 575 531 579 q 522 583 503 583 l 456 583 l 456 671 l 791 671 l 791 583 l 759 583 q 722 583 657 527 l 656 527 l 540 426 l 722 131 q 737 107 750 97 q 764 88 783 88 l 812 88 l 812 0 l 450 0 l 450 88 l 479 88 q 504 88 514 93 q 525 97 525 108 q 525 112 523 116 q 522 120 517 128 l 407 310 l 301 219 l 301 146 q 301 108 312 98 q 323 88 363 88 l 386 88 l 386 0 z"},"R":{"x_min":0,"x_max":803,"ha":803,"o":"m 305 394 l 376 394 q 452 394 479 414 q 507 434 507 485 q 507 539 479 561 q 452 583 384 583 l 305 583 z m 305 146 q 305 108 316 98 q 327 88 367 88 l 403 88 l 403 0 l 19 0 l 19 88 l 56 88 q 95 88 106 98 q 117 107 117 146 l 117 525 q 117 564 106 573 q 95 583 56 583 l 19 583 l 19 671 l 460 671 q 583 671 642 630 q 702 588 702 504 q 702 445 663 406 q 623 367 548 353 q 612 342 640 311 q 667 279 667 218 l 667 153 q 667 111 673 96 q 680 81 696 81 q 715 81 722 103 q 730 125 730 186 l 797 186 q 797 181 797 173 q 798 164 798 160 q 798 68 760 24 q 722 -20 642 -20 q 558 -20 518 21 q 479 63 479 152 l 479 216 q 479 272 461 289 q 443 306 387 306 l 305 306 z"},"T":{"x_min":0,"x_max":694,"ha":694,"o":"m 674 671 l 674 412 l 583 412 q 583 499 551 540 q 518 581 450 581 l 440 581 l 440 155 q 440 120 443 109 q 447 98 456 95 q 466 91 484 89 q 501 87 546 86 l 546 0 l 148 0 l 148 86 q 179 86 202 88 q 225 90 239 95 q 248 98 251 109 q 255 120 255 154 l 255 167 l 255 581 l 245 581 q 177 581 144 540 q 111 498 111 412 l 21 412 l 21 671 z"},"P":{"x_min":0,"x_max":731,"ha":731,"o":"m 305 381 l 367 381 q 441 381 471 405 q 501 428 501 486 q 501 538 470 560 q 438 583 367 583 l 305 583 z m 433 671 q 571 671 635 625 q 698 579 698 478 q 698 436 682 401 q 665 365 634 340 q 604 315 558 305 q 513 294 433 294 l 305 294 l 305 146 q 305 108 316 98 q 327 88 367 88 l 415 88 l 415 0 l 19 0 l 19 88 l 56 88 q 95 88 106 98 q 117 107 117 146 l 117 525 q 117 564 106 573 q 95 583 56 583 l 19 583 l 19 671 z"},"|":{"x_min":0,"x_max":500,"ha":500,"o":"m 192 764 l 309 764 l 309 -236 l 192 -236 z"},"t":{"x_min":0,"x_max":468,"ha":468,"o":"m 92 391 l 25 391 l 25 466 q 83 473 117 521 q 150 570 157 656 l 256 656 l 256 472 l 377 472 l 377 391 l 256 391 l 256 130 q 256 101 265 87 q 275 73 294 73 q 318 73 327 94 q 336 114 336 179 l 336 223 l 417 223 l 417 153 q 417 65 377 22 q 336 -20 253 -20 q 166 -20 129 22 q 92 64 92 168 z"},"M":{"x_min":0,"x_max":979,"ha":979,"o":"m 225 146 q 225 108 236 98 q 247 88 287 88 l 306 88 l 306 0 l 19 0 l 19 88 l 52 88 q 92 88 103 98 q 114 108 114 146 l 114 525 q 114 563 103 573 q 92 583 52 583 l 19 583 l 19 671 l 371 671 l 488 258 l 611 671 l 960 671 l 960 583 l 926 583 q 886 583 875 573 q 864 563 864 525 l 864 146 q 864 108 875 98 q 886 88 926 88 l 960 88 l 960 0 l 608 0 l 608 88 l 628 88 q 667 88 678 98 q 689 107 689 146 l 689 565 l 522 0 l 387 0 l 225 566 z"},"g":{"x_min":0,"x_max":644,"ha":644,"o":"m 274 177 q 305 177 318 206 q 331 235 331 306 q 331 372 318 399 q 305 426 275 426 q 245 426 231 396 q 218 367 218 297 q 218 235 231 206 q 245 177 274 177 z m 153 -108 q 153 -128 190 -138 q 227 -148 299 -148 q 382 -148 417 -138 q 453 -128 453 -105 q 453 -84 423 -75 q 393 -67 309 -67 q 216 -67 185 -76 q 153 -85 153 -108 z m 117 157 q 86 189 72 224 q 57 258 57 298 q 57 389 116 439 q 175 490 281 490 q 325 490 361 479 q 398 467 431 444 q 458 467 484 479 q 510 490 538 490 q 587 490 618 462 q 649 434 649 390 q 649 358 631 338 q 612 319 582 319 q 555 319 536 335 q 517 352 517 375 q 517 390 523 403 q 530 416 543 428 q 538 434 532 437 q 526 440 520 440 q 508 440 494 432 q 479 423 462 407 q 479 385 487 358 q 495 332 495 300 q 495 213 433 162 q 371 111 266 111 q 242 111 216 115 q 191 120 165 129 q 155 123 150 116 q 145 109 145 101 q 145 81 171 73 q 196 65 290 65 q 310 65 344 65 q 379 66 393 66 q 482 66 527 33 q 572 0 572 -64 q 572 -146 505 -182 q 438 -218 281 -218 q 154 -218 93 -193 q 31 -169 31 -119 q 31 -90 51 -70 q 70 -50 110 -40 q 74 -21 56 5 q 39 31 39 65 q 39 94 58 117 q 78 140 117 157 z"},"j":{"x_min":0,"x_max":348,"ha":348,"o":"m 110 594 q 110 628 134 653 q 159 677 193 677 q 228 677 252 653 q 276 628 276 594 q 276 560 252 535 q 228 511 193 511 q 158 511 134 535 q 110 559 110 594 z m 282 472 l 282 -40 q 282 -86 275 -111 q 269 -136 253 -157 q 229 -188 188 -204 q 147 -219 85 -219 q 17 -219 -25 -189 q -68 -158 -68 -111 q -68 -78 -46 -56 q -23 -34 10 -34 q 37 -34 55 -53 q 74 -71 74 -98 q 74 -112 67 -124 q 60 -135 44 -146 q 56 -150 64 -152 q 72 -154 78 -154 q 100 -154 108 -139 q 116 -124 116 -76 l 116 330 q 116 370 107 379 q 98 389 70 389 l 40 389 l 40 472 z"},"i":{"x_min":0,"x_max":362,"ha":362,"o":"m 101 330 l 101 336 q 101 374 93 381 q 84 389 56 389 l 24 389 l 24 472 l 270 472 l 270 128 q 270 98 279 90 q 287 81 315 81 l 340 81 l 340 0 l 24 0 l 24 81 l 54 81 q 83 81 92 90 q 101 98 101 128 z m 93 594 q 93 628 117 653 q 142 677 176 677 q 210 677 235 653 q 259 628 259 594 q 259 560 235 535 q 210 511 176 511 q 141 511 117 535 q 93 559 93 594 z"},"y":{"x_min":0,"x_max":595,"ha":595,"o":"m 255 -34 l 100 333 q 85 368 73 379 q 62 389 44 389 l 17 389 l 17 472 l 320 472 l 320 389 l 297 389 q 276 389 266 385 q 256 381 256 373 q 256 363 267 338 l 268 336 l 341 168 l 405 330 l 407 335 q 419 365 419 374 q 419 382 410 385 q 402 389 383 389 l 360 389 l 360 472 l 583 472 l 583 389 q 549 388 533 378 q 517 368 501 329 l 349 -40 q 308 -140 264 -179 q 221 -218 155 -218 q 92 -218 53 -182 q 13 -146 13 -88 q 13 -45 38 -20 q 63 6 104 6 q 140 6 162 -13 q 183 -32 183 -63 q 183 -94 164 -113 q 146 -131 113 -131 q 106 -131 103 -131 q 99 -130 96 -130 q 107 -143 118 -148 q 129 -154 141 -154 q 177 -154 207 -123 q 236 -92 255 -34 z"},"@":{"x_min":0,"x_max":986,"ha":986,"o":"m 572 153 q 542 106 508 83 q 474 59 436 59 q 360 59 318 103 q 277 147 277 228 q 277 285 302 337 q 326 390 373 433 q 406 463 446 480 q 486 496 528 496 q 575 496 601 475 q 627 453 634 410 l 657 487 l 759 487 l 674 182 q 670 166 668 156 q 667 147 667 139 q 667 117 676 104 q 686 91 701 91 q 716 91 742 104 q 769 118 792 138 q 839 181 864 241 q 889 302 889 375 q 889 434 873 482 q 856 530 823 566 q 775 619 708 647 q 642 675 562 675 q 494 675 433 656 q 371 636 319 598 q 238 540 194 450 q 151 361 151 253 q 151 89 251 -7 q 351 -102 523 -102 q 603 -102 677 -78 q 751 -54 831 -1 l 851 -29 q 777 -84 694 -112 q 611 -140 523 -140 q 312 -140 188 -31 q 63 79 63 263 q 63 362 106 449 q 148 537 229 602 q 296 657 377 685 q 458 713 548 713 q 718 713 821 620 q 924 528 924 374 q 924 294 895 227 q 866 159 811 110 q 782 84 749 71 q 715 57 680 57 q 632 57 604 83 q 575 108 572 153 z m 551 460 q 521 460 497 438 q 473 417 449 370 q 421 315 406 263 q 391 211 391 172 q 391 137 407 117 q 423 96 449 96 q 478 96 505 126 q 533 155 558 214 q 579 262 591 311 q 603 359 603 392 q 603 425 590 442 q 576 460 551 460 z"},".":{"x_min":0,"x_max":318,"ha":318,"o":"m 74 64 q 74 99 99 124 q 124 149 159 149 q 194 149 219 124 q 243 100 243 64 q 243 28 219 4 q 195 -20 159 -20 q 123 -20 99 4 q 74 29 74 64 z"},"p":{"x_min":0,"x_max":621,"ha":621,"o":"m 253 238 q 253 154 272 115 q 291 75 332 75 q 373 75 391 115 q 410 154 410 238 q 410 321 391 361 q 372 401 332 401 q 293 401 273 360 q 253 319 253 238 z m 86 -87 l 86 344 q 86 373 77 382 q 68 391 39 391 l 16 391 l 16 472 l 245 472 l 245 408 q 276 450 312 469 q 349 489 395 489 q 491 489 541 425 q 591 360 591 238 q 591 121 539 52 q 487 -17 400 -17 q 355 -17 319 0 q 283 18 253 53 l 253 -87 q 253 -116 262 -125 q 271 -134 300 -134 l 333 -134 l 333 -215 l 16 -215 l 16 -134 l 39 -134 q 68 -134 77 -125 q 86 -116 86 -87 z"},"X":{"x_min":0,"x_max":764,"ha":764,"o":"m 13 0 l 13 86 l 27 86 q 62 86 85 98 q 108 109 133 141 l 280 324 l 123 533 q 102 562 80 573 q 59 585 29 586 l 29 671 l 383 671 l 383 586 q 380 586 375 586 q 369 587 367 587 q 345 587 333 581 q 321 575 321 564 q 321 558 323 552 q 326 545 334 534 l 402 439 l 481 533 q 490 543 493 549 q 496 555 496 562 q 496 574 482 580 q 468 586 441 586 l 434 586 l 434 671 l 728 671 l 728 586 l 724 586 q 690 586 666 574 q 642 563 619 535 l 477 362 l 638 145 q 664 109 684 97 q 703 84 729 84 q 735 84 748 85 q 750 86 751 86 l 751 0 l 376 0 l 376 86 l 387 86 q 418 86 432 92 q 445 98 445 111 q 445 123 431 140 q 427 144 425 147 l 353 245 l 277 150 q 265 134 261 125 q 257 116 257 107 q 257 96 269 91 q 281 85 303 85 q 311 85 315 85 q 319 85 323 86 l 323 0 z"},"*":{"x_min":0,"x_max":500,"ha":500,"o":"m 240 489 q 238 531 215 578 q 192 625 192 639 q 192 662 208 677 q 224 691 250 691 q 274 691 291 676 q 308 660 308 639 q 308 626 285 579 q 262 533 259 490 q 278 500 295 517 q 312 534 328 559 q 329 561 332 564 q 363 612 392 612 q 415 612 432 594 q 449 576 449 553 q 449 524 432 511 q 416 498 374 495 q 334 492 310 487 q 286 481 270 472 q 309 451 384 447 q 390 447 393 447 q 419 445 435 431 q 450 417 450 394 q 450 367 433 348 q 416 330 391 330 q 363 330 333 375 q 328 382 326 385 q 307 413 291 430 q 275 447 261 454 q 263 414 286 367 q 309 320 309 305 q 309 283 292 268 q 275 253 250 253 q 223 253 208 267 q 193 280 193 305 q 193 317 215 365 q 237 413 241 453 q 223 444 207 428 q 191 412 174 384 q 173 382 170 378 q 140 331 109 331 q 84 331 67 350 q 50 368 50 394 q 50 418 65 431 q 81 444 113 447 q 117 447 124 448 q 196 453 230 471 q 191 492 118 496 q 110 496 105 496 q 81 497 65 512 q 50 526 50 549 q 50 575 67 593 q 84 611 109 611 q 139 611 170 564 q 172 561 174 558 l 174 558 q 206 511 240 489 z"},"Y":{"x_min":0,"x_max":780,"ha":780,"o":"m 485 154 q 485 110 496 98 q 506 86 547 86 l 594 86 l 594 0 l 189 0 l 189 86 l 236 86 q 277 86 288 98 q 299 111 299 154 l 299 277 l 152 507 q 123 552 95 568 q 67 584 23 586 l 23 671 l 407 671 l 407 586 l 375 586 q 354 586 344 580 q 333 574 333 561 q 333 555 338 545 q 343 535 356 515 l 434 394 l 525 531 q 531 540 534 548 q 537 557 537 565 q 537 576 524 581 q 512 586 484 586 l 468 586 l 468 671 l 752 671 l 752 586 l 749 586 q 711 586 687 571 q 663 557 632 507 l 485 277 z"},"c":{"x_min":0,"x_max":502,"ha":502,"o":"m 371 166 l 476 166 q 471 78 417 31 q 364 -17 269 -17 q 152 -17 87 50 q 23 116 23 237 q 23 354 90 422 q 157 490 272 490 q 366 490 423 445 q 480 400 480 327 q 480 280 453 253 q 425 225 379 225 q 341 225 319 247 q 296 268 296 304 q 296 339 316 358 q 336 378 371 378 l 373 378 q 358 393 342 399 q 326 406 306 406 q 253 406 226 365 q 199 324 199 242 q 199 157 222 116 q 244 75 291 75 q 329 75 349 98 q 369 121 371 166 z"},"!":{"x_min":0,"x_max":316,"ha":316,"o":"m 112 210 q 104 297 83 419 q 63 540 63 574 q 63 629 89 660 q 115 692 160 692 q 201 692 227 664 q 252 635 252 588 q 252 532 230 407 q 208 282 205 210 z m 243 65 q 243 29 219 5 q 194 -20 158 -20 q 122 -20 98 4 q 74 29 74 65 q 74 100 98 125 q 123 149 158 149 q 193 149 218 125 q 243 100 243 65 z"},"/":{"x_min":0,"x_max":282,"ha":282,"o":"m 53 -93 l -29 -93 l 228 691 l 312 691 z"},"[":{"x_min":0,"x_max":405,"ha":405,"o":"m 363 -183 l 81 -183 l 81 671 l 363 671 l 363 583 l 248 583 l 248 -93 l 363 -93 z"},"6":{"x_min":0,"x_max":635,"ha":635,"o":"m 231 332 q 264 354 299 365 q 334 376 376 376 q 474 376 531 324 q 589 272 589 184 q 589 94 518 38 q 448 -18 334 -18 q 201 -18 124 64 q 47 146 47 288 q 47 445 129 536 q 210 626 354 626 q 451 626 508 590 q 566 553 566 494 q 566 456 540 432 q 514 408 472 408 q 432 408 408 429 q 384 449 384 483 q 384 502 394 517 q 403 531 423 540 q 410 545 397 547 q 384 550 373 550 q 303 550 267 498 q 231 445 231 344 z m 326 63 q 363 63 385 92 q 407 121 407 170 q 407 228 385 260 q 364 291 324 291 q 287 291 263 260 q 239 229 239 179 q 239 123 261 93 q 284 63 326 63 z"},"r":{"x_min":0,"x_max":505,"ha":505,"o":"m 18 0 l 18 81 l 48 81 q 77 81 86 90 q 95 99 95 128 l 95 344 q 95 373 86 382 q 77 391 48 391 l 18 391 l 18 472 l 254 472 l 254 425 q 280 455 311 470 q 341 486 374 486 q 427 486 458 456 q 489 426 489 376 q 489 333 464 306 q 440 280 400 280 q 369 280 348 300 q 327 321 327 351 q 327 374 340 390 q 353 405 376 412 q 367 417 360 418 q 353 420 347 420 q 310 420 286 380 q 262 341 262 278 l 262 128 q 262 99 271 90 q 280 81 309 81 l 349 81 l 349 0 z"},"2":{"x_min":0,"x_max":635,"ha":635,"o":"m 43 0 q 42 6 42 13 q 42 20 42 33 q 42 89 65 136 q 88 183 137 226 q 171 256 246 297 q 279 315 294 325 q 340 354 358 379 q 375 404 375 439 q 375 482 343 508 q 310 534 256 534 q 211 534 182 517 q 153 499 139 465 q 148 467 156 469 q 164 470 170 470 q 201 470 221 451 q 240 432 240 402 q 240 367 214 343 q 187 319 148 319 q 100 319 71 349 q 42 378 42 429 q 42 513 116 570 q 190 626 303 626 q 424 626 496 571 q 568 516 568 424 q 568 355 521 306 q 475 257 384 230 q 372 226 349 220 q 200 176 159 119 q 189 136 220 144 q 251 152 285 152 q 322 152 372 141 q 422 130 437 130 q 468 130 481 149 q 494 169 494 215 l 582 215 q 583 208 583 200 q 583 193 583 178 q 583 78 539 30 q 495 -18 403 -18 q 358 -18 292 9 q 282 13 277 15 q 243 28 222 33 q 202 39 187 39 q 167 39 152 29 q 137 20 128 0 z"},"{":{"x_min":0,"x_max":500,"ha":500,"o":"m 416 740 l 416 708 q 362 707 342 682 q 322 657 322 580 l 322 516 q 322 405 297 365 q 272 326 207 310 q 272 294 297 255 q 322 215 322 105 l 322 41 q 322 -36 342 -61 q 362 -86 416 -88 l 416 -119 l 410 -119 q 298 -119 257 -83 q 215 -47 215 50 l 215 141 q 215 223 188 253 q 162 284 87 291 l 87 330 q 162 337 188 367 q 215 398 215 480 l 215 571 q 215 668 257 704 q 298 740 410 740 z"},"9":{"x_min":0,"x_max":635,"ha":635,"o":"m 309 546 q 272 546 250 517 q 228 488 228 439 q 228 381 250 349 q 271 317 311 317 q 349 317 373 349 q 397 380 397 430 q 397 485 374 516 q 351 546 309 546 z m 405 277 q 372 254 336 243 q 300 232 259 232 q 161 232 104 284 q 46 335 46 424 q 46 515 116 571 q 187 627 301 627 q 435 627 511 545 q 588 463 588 321 q 588 163 506 73 q 424 -18 281 -18 q 185 -18 127 19 q 69 56 69 115 q 69 153 95 177 q 122 201 164 201 q 204 201 227 180 q 251 159 251 125 q 251 106 241 92 q 232 78 212 69 q 228 63 240 61 q 251 58 262 58 q 332 58 368 111 q 405 164 405 265 z"}," ":{"x_min":0,"x_max":318,"ha":318,"o":""},"I":{"x_min":0,"x_max":438,"ha":438,"o":"m 21 0 l 21 88 l 62 88 q 101 88 112 98 q 123 107 123 146 l 123 525 q 123 564 112 573 q 101 583 62 583 l 21 583 l 21 671 l 417 671 l 417 583 l 376 583 q 336 583 325 573 q 314 563 314 525 l 314 146 q 314 108 325 98 q 336 88 376 88 l 417 88 l 417 0 z"},"H":{"x_min":0,"x_max":827,"ha":827,"o":"m 19 0 l 19 88 l 56 88 q 95 88 106 98 q 117 107 117 146 l 117 525 q 117 564 106 573 q 95 583 56 583 l 19 583 l 19 671 l 386 671 l 386 583 l 367 583 q 327 583 316 573 q 305 563 305 525 l 305 394 l 522 394 l 522 525 q 522 563 511 573 q 500 583 460 583 l 441 583 l 441 671 l 808 671 l 808 583 l 771 583 q 731 583 720 573 q 709 563 709 525 l 709 146 q 709 108 720 98 q 731 88 771 88 l 808 88 l 808 0 l 441 0 l 441 88 l 460 88 q 500 88 511 98 q 522 108 522 146 l 522 303 l 305 303 l 305 146 q 305 108 316 98 q 327 88 367 88 l 386 88 l 386 0 z"},"4":{"x_min":0,"x_max":635,"ha":635,"o":"m 226 0 l 226 83 l 253 83 q 300 83 315 91 q 330 100 330 140 l 330 144 l 330 185 l 39 185 l 39 281 l 350 609 l 501 609 l 501 273 l 598 273 l 598 185 l 501 185 l 501 125 q 501 100 514 91 q 528 83 572 83 l 598 83 l 598 0 z m 139 273 l 330 273 l 332 469 z"},"~":{"x_min":0,"x_max":833,"ha":833,"o":"m 747 400 l 747 276 q 698 242 652 226 q 607 209 563 209 q 541 209 520 213 q 498 216 479 223 q 473 225 460 229 q 336 273 274 273 q 233 273 188 255 q 144 236 87 196 l 87 320 q 142 355 188 373 q 235 390 276 390 q 307 390 338 384 q 369 378 420 362 q 428 359 445 354 q 523 326 566 326 q 607 326 651 344 q 694 361 747 400 z"},"D":{"x_min":0,"x_max":802,"ha":802,"o":"m 305 88 l 374 88 q 469 88 510 145 q 551 203 551 336 q 551 472 510 527 q 469 583 369 583 l 305 583 z m 19 0 l 19 88 l 56 88 q 95 88 106 98 q 117 107 117 146 l 117 525 q 117 564 106 573 q 95 583 56 583 l 19 583 l 19 671 l 374 671 q 575 671 672 588 q 769 506 769 336 q 769 166 672 83 q 574 0 374 0 z"},"^":{"x_min":0,"x_max":1000,"ha":1000,"o":"m 436 714 l 563 714 l 797 438 l 738 438 l 499 608 l 260 438 l 201 438 z"},"0":{"x_min":0,"x_max":635,"ha":635,"o":"m 28 304 q 28 449 108 538 q 188 626 318 626 q 448 626 527 538 q 607 450 607 304 q 607 159 527 71 q 447 -17 317 -17 q 187 -17 107 71 q 28 159 28 304 z m 213 304 q 213 180 238 125 q 262 71 317 71 q 372 71 397 126 q 422 181 422 304 q 422 428 397 483 q 373 538 318 538 q 263 538 238 483 q 213 428 213 304 z"},"F":{"x_min":0,"x_max":692,"ha":692,"o":"m 19 0 l 19 88 l 56 88 q 95 88 106 98 q 117 107 117 146 l 117 525 q 117 564 106 573 q 95 583 56 583 l 19 583 l 19 671 l 648 671 l 648 397 l 560 397 q 555 461 544 497 q 532 532 511 552 q 494 569 465 576 q 437 583 358 583 l 305 583 l 305 392 l 312 392 q 359 392 378 414 q 396 436 396 493 l 396 498 l 480 498 l 480 192 l 396 192 q 395 257 378 281 q 362 305 320 305 q 317 305 312 305 q 308 304 305 304 l 305 146 q 305 108 316 98 q 327 88 367 88 l 409 88 l 409 0 z"},"`":{"x_min":0,"x_max":500,"ha":500,"o":"m 360 538 l 301 538 l 132 622 q 103 636 91 651 q 79 665 79 684 q 79 708 95 724 q 111 740 135 740 q 154 740 172 729 q 190 718 216 691 z"},"k":{"x_min":0,"x_max":667,"ha":667,"o":"m 257 671 l 257 258 l 392 366 q 396 369 398 372 q 400 375 400 380 q 400 386 393 388 q 387 391 372 391 q 366 391 342 390 q 332 389 326 389 l 326 472 l 616 472 l 616 389 q 613 390 609 390 q 605 390 598 390 q 575 390 558 383 q 540 376 520 360 l 458 309 l 571 120 q 582 100 596 91 q 611 82 634 82 q 640 82 644 82 q 647 83 650 83 l 650 0 l 357 0 l 357 83 q 389 83 396 86 q 403 89 403 97 q 403 105 395 120 l 394 121 l 339 216 l 257 150 l 257 128 q 257 99 264 91 q 271 82 293 82 q 295 82 299 83 q 303 83 306 83 l 306 0 l 21 0 l 21 83 l 43 83 q 75 83 82 92 q 90 101 90 128 l 90 531 q 90 574 82 582 q 73 590 45 590 l 21 590 l 21 671 z"},"u":{"x_min":0,"x_max":664,"ha":664,"o":"m 569 472 l 569 128 q 569 99 578 90 q 587 81 616 81 l 644 81 l 644 0 l 410 0 l 410 73 q 379 30 337 8 q 295 -14 244 -14 q 158 -14 122 25 q 86 64 86 161 l 86 344 q 86 373 77 382 q 68 391 39 391 l 16 391 l 16 472 l 253 472 l 253 161 q 253 119 270 98 q 287 77 322 77 q 362 77 383 105 q 403 134 403 191 l 403 344 q 403 373 394 382 q 385 391 356 391 l 345 391 l 345 472 z"},"]":{"x_min":0,"x_max":405,"ha":405,"o":"m 42 -183 l 42 -93 l 157 -93 l 157 583 l 42 583 l 42 671 l 324 671 l 324 -183 z"},"U":{"x_min":0,"x_max":771,"ha":771,"o":"m 19 586 l 19 671 l 399 671 l 399 586 q 393 586 385 587 q 378 587 365 587 q 324 587 311 572 q 297 557 297 488 l 297 219 q 297 143 323 111 q 350 79 412 79 q 486 79 518 109 q 550 140 550 211 l 550 483 q 550 551 536 569 q 522 587 479 587 q 469 587 463 587 q 458 586 453 586 l 453 671 l 752 671 l 752 586 q 714 586 694 582 q 674 579 667 570 q 663 565 661 550 q 659 535 659 482 l 659 198 q 659 91 587 35 q 516 -21 378 -21 q 252 -21 182 34 q 112 90 112 190 l 112 485 q 112 547 98 567 q 85 587 48 587 q 37 587 31 587 q 24 586 19 586 z"},"o":{"x_min":0,"x_max":597,"ha":597,"o":"m 205 236 q 205 141 226 105 q 247 69 298 69 q 350 69 370 105 q 391 141 391 236 q 391 332 370 368 q 350 404 298 404 q 247 404 226 368 q 205 332 205 236 z m 25 236 q 25 354 98 422 q 171 490 298 490 q 425 490 499 422 q 572 354 572 236 q 572 118 499 51 q 425 -17 298 -17 q 170 -17 98 51 q 25 118 25 236 z"},"N":{"x_min":0,"x_max":818,"ha":818,"o":"m 116 525 q 116 563 105 573 q 94 583 54 583 l 19 583 l 19 671 l 340 671 l 597 203 l 597 525 q 597 563 586 573 q 575 583 535 583 l 497 583 l 497 671 l 803 671 l 803 583 l 772 583 q 732 583 721 573 q 710 563 710 525 l 710 0 l 504 0 l 229 499 l 229 146 q 229 108 240 98 q 251 88 291 88 l 329 88 l 329 0 l 19 0 l 19 88 l 54 88 q 94 88 105 98 q 116 108 116 146 z"},"+":{"x_min":0,"x_max":833,"ha":833,"o":"m 359 596 l 475 596 l 475 355 l 709 355 l 709 242 l 475 242 l 475 0 l 359 0 l 359 242 l 124 242 l 124 355 l 359 355 z"},"G":{"x_min":0,"x_max":782,"ha":782,"o":"m 605 -7 l 580 44 q 530 12 478 -4 q 425 -20 368 -20 q 214 -20 124 73 q 33 167 33 326 q 33 489 127 590 q 221 691 372 691 q 427 691 475 676 q 523 661 568 629 l 585 678 l 677 678 l 677 408 l 581 408 q 570 501 528 546 q 486 591 409 591 q 331 591 291 529 q 251 468 251 348 q 251 207 288 143 q 325 79 405 79 q 462 79 485 98 q 507 117 507 169 l 507 216 q 507 252 498 260 q 489 268 459 268 l 410 268 l 410 356 l 776 356 l 776 268 l 740 268 q 713 268 704 259 q 694 249 694 223 l 694 -7 z"},"q":{"x_min":0,"x_max":621,"ha":621,"o":"m 535 -87 q 535 -116 544 -125 q 553 -134 582 -134 l 605 -134 l 605 -215 l 288 -215 l 288 -134 l 322 -134 q 351 -134 360 -125 q 369 -116 369 -87 l 369 53 q 339 18 302 0 q 266 -17 221 -17 q 134 -17 83 52 q 31 121 31 238 q 31 361 81 425 q 131 489 226 489 q 272 489 308 469 q 344 450 376 408 l 376 472 l 605 472 l 605 391 l 582 391 q 553 391 544 382 q 535 373 535 344 z m 369 238 q 369 318 349 360 q 328 401 289 401 q 249 401 230 361 q 211 321 211 238 q 211 154 230 115 q 249 75 289 75 q 330 75 350 115 q 369 154 369 238 z"},"d":{"x_min":0,"x_max":620,"ha":620,"o":"m 368 543 q 368 573 358 582 q 349 590 321 590 l 288 590 l 288 671 l 535 671 l 535 126 q 535 97 544 88 q 553 79 582 79 l 605 79 l 605 0 l 375 0 l 375 64 q 346 21 311 2 q 275 -18 228 -18 q 131 -18 81 46 q 30 110 30 233 q 30 350 82 419 q 134 488 221 488 q 265 488 301 470 q 337 453 368 417 z m 211 233 q 211 152 231 111 q 251 70 290 70 q 330 70 349 110 q 368 150 368 233 q 368 317 349 357 q 331 396 290 396 q 249 396 230 357 q 211 317 211 233 z"},"1":{"x_min":0,"x_max":635,"ha":635,"o":"m 114 0 l 114 83 l 159 83 q 204 83 218 92 q 232 102 232 141 l 232 160 l 232 442 l 114 442 l 114 524 q 182 525 223 546 q 264 567 280 609 l 408 609 l 408 154 q 408 105 420 94 q 432 83 481 83 l 521 83 l 521 0 z"},"5":{"x_min":0,"x_max":635,"ha":635,"o":"m 91 309 l 109 623 q 167 614 225 609 q 282 605 341 605 q 401 605 463 615 q 525 624 527 624 q 537 624 542 619 q 548 615 548 607 q 548 560 474 523 q 401 486 293 486 q 271 486 246 489 q 221 491 193 496 l 189 408 q 219 425 252 433 q 285 441 324 441 q 441 441 512 379 q 582 318 582 214 q 582 110 503 46 q 424 -18 296 -18 q 185 -18 118 29 q 51 76 51 153 q 51 200 80 228 q 108 257 156 257 q 194 257 219 233 q 244 209 244 173 q 244 141 223 121 q 202 102 164 98 q 188 81 212 73 q 235 65 259 65 q 321 65 356 106 q 391 148 391 222 q 391 280 360 315 q 330 349 278 349 q 249 349 226 339 q 204 329 187 309 z"}}}
